<svg xmlns="http://www.w3.org/2000/svg" xmlns:xlink="http://www.w3.org/1999/xlink" width="500" zoomAndPan="magnify" viewBox="0 0 375 374.999991" height="500" preserveAspectRatio="xMidYMid meet" version="1.0"><defs><g/><clipPath id="b1675083c8"><path d="M 188 157 L 227 157 L 227 214.664062 L 188 214.664062 Z M 188 157 " clip-rule="nonzero"/></clipPath></defs><path fill="#424242" d="M 137.058594 154.90625 C 149.878906 151.3125 160.527344 153.058594 166.488281 158.242188 C 176.242188 166.726562 181.78125 173.1875 179.964844 186.945312 C 178.675781 196.714844 179.890625 201.808594 174.960938 207.175781 C 167.703125 215.082031 151.230469 220.3125 141.605469 216.824219 C 132.664062 213.582031 122.554688 212.933594 118.238281 197.65625 C 116.492188 191.476562 113.421875 178.429688 118.921875 170.554688 C 125.582031 161.019531 130.507812 156.738281 137.058594 154.90625 Z M 137.058594 154.90625 " fill-opacity="1" fill-rule="nonzero"/><g clip-path="url(#b1675083c8)"><path fill="#c0c0ca" d="M 226.359375 185.003906 C 227.238281 203.734375 221.183594 213.527344 209.386719 214.089844 C 197.589844 214.652344 188.359375 207.6875 188.539062 198.878906 C 189.382812 157.113281 186.636719 157.074219 192.273438 157.113281 C 197.035156 157.140625 215.691406 157.253906 222.027344 157.113281 C 228.367188 156.96875 225.199219 160.246094 226.359375 185.003906 " fill-opacity="1" fill-rule="nonzero"/></g><g fill="#424242" fill-opacity="1"><g transform="translate(233.522523, 206.137282)"><g><path d="M 17.25 0.601562 C 23.699219 0.601562 30.675781 -2.851562 30.675781 -10.648438 C 30.675781 -24.976562 7.050781 -21.675781 7.050781 -34.949219 C 7.050781 -41.398438 12.523438 -44.398438 17.625 -44.398438 C 22.050781 -44.398438 25.574219 -42.148438 27.300781 -39.75 L 28.273438 -40.5 C 26.25 -43.199219 22.351562 -45.601562 17.550781 -45.601562 C 12.074219 -45.601562 5.851562 -42.375 5.851562 -34.949219 C 5.851562 -20.550781 29.476562 -23.851562 29.476562 -10.648438 C 29.476562 -4.125 23.699219 -0.601562 17.324219 -0.601562 C 10.949219 -0.601562 6.300781 -4.125 4.726562 -8.25 L 3.601562 -7.875 C 5.398438 -3.148438 10.648438 0.601562 17.25 0.601562 Z M 17.25 0.601562 "/></g></g></g><g fill="#424242" fill-opacity="1"><g transform="translate(275.916372, 206.137282)"><g><path d="M 29.773438 -43.800781 L 29.773438 -45 L 6.976562 -45 L 6.976562 0 L 29.773438 0 L 29.773438 -1.199219 L 8.175781 -1.199219 L 8.175781 -21.898438 L 27.226562 -21.898438 L 27.226562 -23.101562 L 8.175781 -23.101562 L 8.175781 -43.800781 Z M 29.773438 -43.800781 "/></g></g></g><g fill="#424242" fill-opacity="1"><g transform="translate(56.180886, 206.137282)"><g><path d="M 46.648438 -45 L 27.148438 -1.5 L 7.648438 -45 L 6.601562 -45 L 6.601562 0 L 7.800781 0 L 7.800781 -42.226562 L 26.625 0 L 27.601562 0 L 46.5 -42.226562 L 46.5 0 L 47.699219 0 L 47.699219 -45 Z M 46.648438 -45 "/></g></g></g></svg>